<mxfile host="app.diagrams.net" modified="2023-10-11T14:10:44.145Z" agent="Mozilla/5.0 (Windows NT 10.0; Win64; x64) AppleWebKit/537.36 (KHTML, like Gecko) Chrome/117.0.0.0 Safari/537.36 Edg/117.0.2045.60" etag="fWtv6UpoNDi73hswwywW" version="22.0.4" type="google">
  <diagram name="PÃ¡gina-1" id="1k23t4qGnjmdw8zkKLZZ">
    <mxGraphModel grid="1" page="1" gridSize="10" guides="1" tooltips="1" connect="1" arrows="1" fold="1" pageScale="1" pageWidth="827" pageHeight="1169" math="0" shadow="0">
      <root>
        <mxCell id="0" />
        <mxCell id="1" parent="0" />
        <mxCell id="j6GS85r5pPpASv1nKcc8-21" style="edgeStyle=orthogonalEdgeStyle;rounded=1;orthogonalLoop=1;jettySize=auto;html=1;exitX=0;exitY=0.5;exitDx=0;exitDy=0;startArrow=classic;startFill=1;labelBackgroundColor=none;fontColor=default;strokeColor=#182E3E;" edge="1" parent="1" source="NHeLsw_yhPCQy0wxF3gW-1" target="NHeLsw_yhPCQy0wxF3gW-5">
          <mxGeometry relative="1" as="geometry" />
        </mxCell>
        <mxCell id="NHeLsw_yhPCQy0wxF3gW-1" value="&lt;font color=&quot;#000000&quot;&gt;&lt;b&gt;CLIENTES&lt;/b&gt;&lt;/font&gt;" style="whiteSpace=wrap;html=1;align=center;labelBackgroundColor=none;fillColor=#F78A0C;strokeColor=#000000;fontColor=#1A1A1A;rounded=1;strokeWidth=2;" vertex="1" parent="1">
          <mxGeometry x="-530" y="630" width="140" height="60" as="geometry" />
        </mxCell>
        <mxCell id="j6GS85r5pPpASv1nKcc8-23" style="edgeStyle=orthogonalEdgeStyle;rounded=1;orthogonalLoop=1;jettySize=auto;html=1;exitX=0.5;exitY=1;exitDx=0;exitDy=0;entryX=0.5;entryY=0;entryDx=0;entryDy=0;startArrow=classic;startFill=1;labelBackgroundColor=none;fontColor=default;strokeColor=#182E3E;" edge="1" parent="1" source="NHeLsw_yhPCQy0wxF3gW-2" target="NHeLsw_yhPCQy0wxF3gW-14">
          <mxGeometry relative="1" as="geometry" />
        </mxCell>
        <mxCell id="NHeLsw_yhPCQy0wxF3gW-2" value="&lt;font color=&quot;#000000&quot;&gt;&lt;b&gt;VENDEDORES&lt;/b&gt;&lt;/font&gt;" style="whiteSpace=wrap;html=1;align=center;labelBackgroundColor=none;fillColor=#F78A0C;strokeColor=#000000;fontColor=#1A1A1A;rounded=1;strokeWidth=2;" vertex="1" parent="1">
          <mxGeometry x="-290" y="-30" width="130" height="60" as="geometry" />
        </mxCell>
        <mxCell id="NHeLsw_yhPCQy0wxF3gW-4" value="&lt;b&gt;&lt;font color=&quot;#000000&quot;&gt;FACTURAS&lt;/font&gt;&lt;/b&gt;" style="whiteSpace=wrap;html=1;align=center;labelBackgroundColor=none;fillColor=#F78A0C;strokeColor=#000000;fontColor=#1A1A1A;rounded=1;strokeWidth=2;" vertex="1" parent="1">
          <mxGeometry x="-535" y="200" width="150" height="55" as="geometry" />
        </mxCell>
        <mxCell id="NHeLsw_yhPCQy0wxF3gW-5" value="&lt;ul&gt;&lt;li&gt;&lt;b&gt;&lt;font color=&quot;#000000&quot;&gt;ID_CLIENTE&lt;/font&gt;&lt;/b&gt;&lt;/li&gt;&lt;li&gt;&lt;b&gt;&lt;font color=&quot;#000000&quot;&gt;ID_DIRECCION&lt;/font&gt;&lt;/b&gt;&lt;/li&gt;&lt;li&gt;&lt;b&gt;&lt;font color=&quot;#000000&quot;&gt;NOMBRE_CLIENTE&lt;/font&gt;&lt;/b&gt;&lt;/li&gt;&lt;li&gt;&lt;b&gt;&lt;font color=&quot;#000000&quot;&gt;APELLIDO_CLIENTE&lt;/font&gt;&lt;/b&gt;&lt;/li&gt;&lt;li&gt;&lt;b&gt;&lt;font color=&quot;#000000&quot;&gt;RUT_CLIENTE&lt;/font&gt;&lt;/b&gt;&lt;/li&gt;&lt;li&gt;&lt;b&gt;&lt;font color=&quot;#000000&quot;&gt;TELEFONO_CLIENTE&lt;/font&gt;&lt;/b&gt;&lt;/li&gt;&lt;li&gt;&lt;b&gt;&lt;font color=&quot;#000000&quot;&gt;EMAIL_CLIENTE&lt;/font&gt;&lt;/b&gt;&lt;/li&gt;&lt;/ul&gt;" style="ellipse;whiteSpace=wrap;html=1;align=left;labelBackgroundColor=none;fillColor=#F5AB50;strokeColor=#000000;fontColor=#1A1A1A;rounded=1;strokeWidth=2;" vertex="1" parent="1">
          <mxGeometry x="-750" y="870" width="200" height="180" as="geometry" />
        </mxCell>
        <mxCell id="NHeLsw_yhPCQy0wxF3gW-14" value="&lt;ul&gt;&lt;li&gt;&lt;font color=&quot;#000000&quot;&gt;&lt;b&gt;ID_VENDEDOR&lt;/b&gt;&lt;/font&gt;&lt;/li&gt;&lt;li&gt;&lt;font color=&quot;#000000&quot;&gt;&lt;b&gt;NOMBRE&lt;/b&gt;&lt;/font&gt;&lt;/li&gt;&lt;li&gt;&lt;font color=&quot;#000000&quot;&gt;&lt;b&gt;APELLIDO&lt;/b&gt;&lt;/font&gt;&lt;/li&gt;&lt;li&gt;&lt;font color=&quot;#000000&quot;&gt;&lt;b&gt;RUT&lt;/b&gt;&lt;/font&gt;&lt;/li&gt;&lt;li&gt;&lt;font color=&quot;#000000&quot;&gt;&lt;b&gt;CARGO&lt;/b&gt;&lt;/font&gt;&lt;/li&gt;&lt;/ul&gt;" style="ellipse;whiteSpace=wrap;html=1;align=left;labelBackgroundColor=none;fillColor=#F5AB50;strokeColor=#000000;fontColor=#1A1A1A;rounded=1;strokeWidth=2;" vertex="1" parent="1">
          <mxGeometry x="-165" y="110" width="160" height="140" as="geometry" />
        </mxCell>
        <mxCell id="NHeLsw_yhPCQy0wxF3gW-18" value="&lt;b&gt;&lt;font color=&quot;#000000&quot;&gt;TIENE&lt;/font&gt;&lt;/b&gt;" style="shape=rhombus;perimeter=rhombusPerimeter;whiteSpace=wrap;html=1;align=center;labelBackgroundColor=none;fillColor=#F78A0C;strokeColor=#000000;fontColor=#1A1A1A;rounded=1;strokeWidth=2;" vertex="1" parent="1">
          <mxGeometry x="-50" y="-320" width="120" height="60" as="geometry" />
        </mxCell>
        <mxCell id="j6GS85r5pPpASv1nKcc8-1" value="&lt;b&gt;&lt;font color=&quot;#000000&quot;&gt;ORDEN_DESPACHO&lt;/font&gt;&lt;/b&gt;" style="whiteSpace=wrap;html=1;align=center;labelBackgroundColor=none;fillColor=#F78A0C;strokeColor=#000000;fontColor=#1A1A1A;rounded=1;strokeWidth=2;" vertex="1" parent="1">
          <mxGeometry x="345" y="630" width="150" height="60" as="geometry" />
        </mxCell>
        <mxCell id="j6GS85r5pPpASv1nKcc8-2" value="&lt;ul&gt;&lt;li&gt;&lt;b&gt;ID_FACTURA&lt;/b&gt;&lt;/li&gt;&lt;li style=&quot;border-color: var(--border-color);&quot;&gt;&lt;b&gt;ID CLIENTE&lt;/b&gt;&lt;/li&gt;&lt;li style=&quot;border-color: var(--border-color);&quot;&gt;&lt;b&gt;ID VENDEDOR&lt;/b&gt;&lt;/li&gt;&lt;li style=&quot;border-color: var(--border-color);&quot;&gt;&lt;b&gt;ID_DIRECCION&lt;/b&gt;&lt;/li&gt;&lt;li&gt;&lt;b&gt;FECHA_FACTURA&lt;/b&gt;&lt;/li&gt;&lt;li&gt;&lt;b&gt;IMPUESTOS&lt;/b&gt;&lt;/li&gt;&lt;li&gt;&lt;b&gt;TOTAL_PAGAR&lt;/b&gt;&lt;/li&gt;&lt;/ul&gt;" style="ellipse;whiteSpace=wrap;html=1;align=left;labelBackgroundColor=none;fillColor=#F5AB50;strokeColor=#000000;fontColor=#1A1A1A;rounded=1;strokeWidth=2;" vertex="1" parent="1">
          <mxGeometry x="-85" y="320" width="190" height="180" as="geometry" />
        </mxCell>
        <mxCell id="j6GS85r5pPpASv1nKcc8-5" value="&lt;b&gt;&lt;font color=&quot;#000000&quot;&gt;TIENE&lt;/font&gt;&lt;/b&gt;" style="shape=rhombus;perimeter=rhombusPerimeter;whiteSpace=wrap;html=1;align=center;labelBackgroundColor=none;fillColor=#F78A0C;strokeColor=#000000;fontColor=#1A1A1A;rounded=1;strokeWidth=2;" vertex="1" parent="1">
          <mxGeometry x="-520" y="-30" width="120" height="60" as="geometry" />
        </mxCell>
        <mxCell id="j6GS85r5pPpASv1nKcc8-6" value="&lt;ul&gt;&lt;li&gt;&lt;b&gt;ID_ORDEN_DESPACHO&lt;/b&gt;&lt;/li&gt;&lt;li style=&quot;border-color: var(--border-color);&quot;&gt;&lt;b&gt;ID_DIRECCION&lt;/b&gt;&lt;/li&gt;&lt;li style=&quot;border-color: var(--border-color);&quot;&gt;&lt;b&gt;FECHA_ORDEN_DESPACHO&lt;/b&gt;&lt;/li&gt;&lt;li style=&quot;border-color: var(--border-color);&quot;&gt;&lt;b style=&quot;background-color: initial;&quot;&gt;FECHA_RECEPCION&lt;/b&gt;&lt;/li&gt;&lt;/ul&gt;" style="ellipse;whiteSpace=wrap;html=1;align=left;labelBackgroundColor=none;fillColor=#F5AB50;strokeColor=#000000;fontColor=#1A1A1A;rounded=1;strokeWidth=2;" vertex="1" parent="1">
          <mxGeometry x="505" y="861.25" width="220" height="197.5" as="geometry" />
        </mxCell>
        <mxCell id="j6GS85r5pPpASv1nKcc8-7" value="&lt;b&gt;&lt;font color=&quot;#000000&quot;&gt;TIENE&lt;/font&gt;&lt;/b&gt;" style="shape=rhombus;perimeter=rhombusPerimeter;whiteSpace=wrap;html=1;align=center;labelBackgroundColor=none;fillColor=#F78A0C;strokeColor=#000000;fontColor=#1A1A1A;rounded=1;strokeWidth=2;" vertex="1" parent="1">
          <mxGeometry x="-520" y="440" width="120" height="60" as="geometry" />
        </mxCell>
        <mxCell id="j6GS85r5pPpASv1nKcc8-28" value="" style="shape=link;html=1;rounded=1;entryX=0.5;entryY=0;entryDx=0;entryDy=0;exitX=0.5;exitY=1;exitDx=0;exitDy=0;labelBackgroundColor=none;fontColor=default;strokeColor=#182E3E;" edge="1" parent="1" source="j6GS85r5pPpASv1nKcc8-7" target="NHeLsw_yhPCQy0wxF3gW-1">
          <mxGeometry relative="1" as="geometry">
            <mxPoint x="340" y="780" as="sourcePoint" />
            <mxPoint x="500" y="780" as="targetPoint" />
          </mxGeometry>
        </mxCell>
        <mxCell id="j6GS85r5pPpASv1nKcc8-29" value="1" style="resizable=0;html=1;whiteSpace=wrap;align=right;verticalAlign=bottom;labelBackgroundColor=none;fillColor=#F5AB50;strokeColor=#909090;fontColor=#1A1A1A;rounded=1;fontStyle=1;fontSize=19;" connectable="0" vertex="1" parent="j6GS85r5pPpASv1nKcc8-28">
          <mxGeometry x="1" relative="1" as="geometry">
            <mxPoint x="28" y="-14" as="offset" />
          </mxGeometry>
        </mxCell>
        <mxCell id="j6GS85r5pPpASv1nKcc8-32" value="" style="shape=link;html=1;rounded=1;entryX=0.5;entryY=1;entryDx=0;entryDy=0;exitX=0.5;exitY=0;exitDx=0;exitDy=0;labelBackgroundColor=none;fontColor=default;strokeColor=#182E3E;" edge="1" parent="1" source="j6GS85r5pPpASv1nKcc8-7" target="NHeLsw_yhPCQy0wxF3gW-4">
          <mxGeometry relative="1" as="geometry">
            <mxPoint x="220" y="690" as="sourcePoint" />
            <mxPoint x="380" y="690" as="targetPoint" />
          </mxGeometry>
        </mxCell>
        <mxCell id="j6GS85r5pPpASv1nKcc8-33" value="N" style="resizable=0;html=1;whiteSpace=wrap;align=right;verticalAlign=bottom;labelBackgroundColor=none;fillColor=#F5AB50;strokeColor=#909090;fontColor=#1A1A1A;rounded=1;fontStyle=1;fontSize=19;" connectable="0" vertex="1" parent="j6GS85r5pPpASv1nKcc8-32">
          <mxGeometry x="1" relative="1" as="geometry">
            <mxPoint x="-14" y="33" as="offset" />
          </mxGeometry>
        </mxCell>
        <mxCell id="j6GS85r5pPpASv1nKcc8-36" value="" style="edgeStyle=orthogonalEdgeStyle;rounded=1;orthogonalLoop=1;jettySize=auto;html=1;startArrow=classic;startFill=1;entryX=0;entryY=0.5;entryDx=0;entryDy=0;exitX=1;exitY=0.5;exitDx=0;exitDy=0;labelBackgroundColor=none;fontColor=default;strokeColor=#182E3E;" edge="1" parent="1" source="NHeLsw_yhPCQy0wxF3gW-4" target="j6GS85r5pPpASv1nKcc8-2">
          <mxGeometry relative="1" as="geometry">
            <mxPoint x="200.5" y="580" as="sourcePoint" />
            <mxPoint x="279.5" y="480" as="targetPoint" />
          </mxGeometry>
        </mxCell>
        <mxCell id="j6GS85r5pPpASv1nKcc8-37" value="" style="shape=link;html=1;rounded=1;exitX=0.5;exitY=1;exitDx=0;exitDy=0;entryX=0.5;entryY=0;entryDx=0;entryDy=0;labelBackgroundColor=none;fontColor=default;strokeColor=#182E3E;" edge="1" parent="1" source="j6GS85r5pPpASv1nKcc8-5" target="NHeLsw_yhPCQy0wxF3gW-4">
          <mxGeometry relative="1" as="geometry">
            <mxPoint x="134.99" y="360.01" as="sourcePoint" />
            <mxPoint x="54.99" y="470.01" as="targetPoint" />
          </mxGeometry>
        </mxCell>
        <mxCell id="j6GS85r5pPpASv1nKcc8-38" value="N" style="resizable=0;html=1;whiteSpace=wrap;align=right;verticalAlign=bottom;labelBackgroundColor=none;fillColor=#F5AB50;strokeColor=#909090;fontColor=#1A1A1A;rounded=1;fontStyle=1;fontSize=19;" connectable="0" vertex="1" parent="j6GS85r5pPpASv1nKcc8-37">
          <mxGeometry x="1" relative="1" as="geometry">
            <mxPoint x="-15" y="-12" as="offset" />
          </mxGeometry>
        </mxCell>
        <mxCell id="j6GS85r5pPpASv1nKcc8-39" value="" style="shape=link;html=1;rounded=1;exitX=0.5;exitY=0;exitDx=0;exitDy=0;labelBackgroundColor=none;fontColor=default;strokeColor=#182E3E;entryX=0;entryY=0.5;entryDx=0;entryDy=0;" edge="1" parent="1" source="j6GS85r5pPpASv1nKcc8-5" target="Z4MrIaU6HC4P4dryGhvO-14">
          <mxGeometry relative="1" as="geometry">
            <mxPoint x="180" y="120" as="sourcePoint" />
            <mxPoint x="-600" y="-130" as="targetPoint" />
            <Array as="points">
              <mxPoint x="-460" y="-290" />
            </Array>
          </mxGeometry>
        </mxCell>
        <mxCell id="j6GS85r5pPpASv1nKcc8-40" value="1" style="resizable=0;html=1;whiteSpace=wrap;align=right;verticalAlign=bottom;labelBackgroundColor=none;fillColor=#F5AB50;strokeColor=#909090;fontColor=#1A1A1A;rounded=1;fontStyle=1;fontSize=19;" connectable="0" vertex="1" parent="j6GS85r5pPpASv1nKcc8-39">
          <mxGeometry x="1" relative="1" as="geometry">
            <mxPoint x="-15" y="-11" as="offset" />
          </mxGeometry>
        </mxCell>
        <mxCell id="j6GS85r5pPpASv1nKcc8-44" value="" style="shape=link;html=1;rounded=1;exitX=0.5;exitY=1;exitDx=0;exitDy=0;entryX=0;entryY=0.5;entryDx=0;entryDy=0;labelBackgroundColor=none;fontColor=default;strokeColor=#182E3E;" edge="1" parent="1" source="NHeLsw_yhPCQy0wxF3gW-18" target="Z4MrIaU6HC4P4dryGhvO-11">
          <mxGeometry relative="1" as="geometry">
            <mxPoint y="-300" as="sourcePoint" />
            <mxPoint x="320" y="105" as="targetPoint" />
            <Array as="points">
              <mxPoint x="10" y="40" />
            </Array>
          </mxGeometry>
        </mxCell>
        <mxCell id="j6GS85r5pPpASv1nKcc8-45" value="1" style="resizable=0;html=1;whiteSpace=wrap;align=right;verticalAlign=bottom;labelBackgroundColor=none;fillColor=#F5AB50;strokeColor=#909090;fontColor=#1A1A1A;rounded=1;fontStyle=1;fontSize=19;" connectable="0" vertex="1" parent="j6GS85r5pPpASv1nKcc8-44">
          <mxGeometry x="1" relative="1" as="geometry">
            <mxPoint x="-20" y="-10" as="offset" />
          </mxGeometry>
        </mxCell>
        <mxCell id="Z4MrIaU6HC4P4dryGhvO-2" value="&lt;font color=&quot;#000000&quot;&gt;&lt;b&gt;DIRECCIONES&lt;/b&gt;&lt;/font&gt;" style="whiteSpace=wrap;html=1;align=center;labelBackgroundColor=none;fillColor=#F78A0C;strokeColor=#000000;fontColor=#1A1A1A;rounded=1;strokeWidth=2;" vertex="1" parent="1">
          <mxGeometry x="-60" y="830" width="140" height="60" as="geometry" />
        </mxCell>
        <mxCell id="Z4MrIaU6HC4P4dryGhvO-3" value="&lt;b&gt;&lt;font color=&quot;#000000&quot;&gt;TIENE&lt;/font&gt;&lt;/b&gt;" style="shape=rhombus;perimeter=rhombusPerimeter;whiteSpace=wrap;html=1;align=center;labelBackgroundColor=none;fillColor=#F78A0C;strokeColor=#000000;fontColor=#1A1A1A;rounded=1;strokeWidth=2;" vertex="1" parent="1">
          <mxGeometry x="-50" y="630" width="120" height="60" as="geometry" />
        </mxCell>
        <mxCell id="Z4MrIaU6HC4P4dryGhvO-4" value="&lt;ul&gt;&lt;li&gt;&lt;font color=&quot;#000000&quot;&gt;&lt;b&gt;ID_DIRECCION&lt;/b&gt;&lt;/font&gt;&lt;/li&gt;&lt;li&gt;&lt;font color=&quot;#000000&quot;&gt;&lt;b&gt;CALLE&lt;/b&gt;&lt;/font&gt;&lt;/li&gt;&lt;li&gt;&lt;font color=&quot;#000000&quot;&gt;&lt;b&gt;NUMERO&lt;/b&gt;&lt;/font&gt;&lt;/li&gt;&lt;li&gt;&lt;font color=&quot;#000000&quot;&gt;&lt;b&gt;COMUNA&lt;/b&gt;&lt;/font&gt;&lt;/li&gt;&lt;li&gt;&lt;font color=&quot;#000000&quot;&gt;&lt;b&gt;CIUDAD&lt;/b&gt;&lt;/font&gt;&lt;/li&gt;&lt;li&gt;&lt;font color=&quot;#000000&quot;&gt;&lt;b&gt;CODIGO POSTAL&lt;/b&gt;&lt;/font&gt;&lt;/li&gt;&lt;/ul&gt;" style="ellipse;whiteSpace=wrap;html=1;align=left;labelBackgroundColor=none;fillColor=#F5AB50;strokeColor=#000000;fontColor=#1A1A1A;rounded=1;strokeWidth=2;" vertex="1" parent="1">
          <mxGeometry x="-80" y="970" width="180" height="170" as="geometry" />
        </mxCell>
        <mxCell id="Z4MrIaU6HC4P4dryGhvO-6" value="" style="shape=link;html=1;rounded=1;entryX=1;entryY=0.5;entryDx=0;entryDy=0;exitX=0;exitY=0.5;exitDx=0;exitDy=0;labelBackgroundColor=none;fontColor=default;strokeColor=#182E3E;" edge="1" parent="1" source="Z4MrIaU6HC4P4dryGhvO-3" target="NHeLsw_yhPCQy0wxF3gW-1">
          <mxGeometry relative="1" as="geometry">
            <mxPoint x="-650" y="570" as="sourcePoint" />
            <mxPoint x="-470" y="600" as="targetPoint" />
          </mxGeometry>
        </mxCell>
        <mxCell id="Z4MrIaU6HC4P4dryGhvO-7" value="1" style="resizable=0;html=1;whiteSpace=wrap;align=right;verticalAlign=bottom;labelBackgroundColor=none;fillColor=#F5AB50;strokeColor=#909090;fontColor=#1A1A1A;rounded=1;fontStyle=1;fontSize=19;" connectable="0" vertex="1" parent="Z4MrIaU6HC4P4dryGhvO-6">
          <mxGeometry x="1" relative="1" as="geometry">
            <mxPoint x="26" y="36" as="offset" />
          </mxGeometry>
        </mxCell>
        <mxCell id="Z4MrIaU6HC4P4dryGhvO-8" value="" style="shape=link;html=1;rounded=1;entryX=0.5;entryY=0;entryDx=0;entryDy=0;exitX=0.5;exitY=1;exitDx=0;exitDy=0;labelBackgroundColor=none;fontColor=default;strokeColor=#182E3E;" edge="1" parent="1" source="Z4MrIaU6HC4P4dryGhvO-3" target="Z4MrIaU6HC4P4dryGhvO-2">
          <mxGeometry relative="1" as="geometry">
            <mxPoint x="-620" y="760" as="sourcePoint" />
            <mxPoint x="-510" y="790" as="targetPoint" />
          </mxGeometry>
        </mxCell>
        <mxCell id="Z4MrIaU6HC4P4dryGhvO-9" value="1" style="resizable=0;html=1;whiteSpace=wrap;align=right;verticalAlign=bottom;labelBackgroundColor=none;fillColor=#F5AB50;strokeColor=#909090;fontColor=#1A1A1A;rounded=1;fontStyle=1;fontSize=19;" connectable="0" vertex="1" parent="Z4MrIaU6HC4P4dryGhvO-8">
          <mxGeometry x="1" relative="1" as="geometry">
            <mxPoint x="29" y="-15" as="offset" />
          </mxGeometry>
        </mxCell>
        <mxCell id="Z4MrIaU6HC4P4dryGhvO-11" value="&lt;font color=&quot;#000000&quot;&gt;&lt;b&gt;DPTO_DESPACHOS&lt;br&gt;&lt;br&gt;&lt;/b&gt;&lt;/font&gt;" style="whiteSpace=wrap;html=1;align=center;labelBackgroundColor=none;fillColor=#F78A0C;strokeColor=#000000;fontColor=#1A1A1A;rounded=1;strokeWidth=2;" vertex="1" parent="1">
          <mxGeometry x="345" y="10" width="130" height="60" as="geometry" />
        </mxCell>
        <mxCell id="Z4MrIaU6HC4P4dryGhvO-13" value="&lt;ul&gt;&lt;li&gt;ID_DESPACHOS&lt;/li&gt;&lt;li&gt;ID_FACTURA&lt;/li&gt;&lt;li&gt;ID_ORDEN_DESPACHO&lt;/li&gt;&lt;li&gt;ID_VEHICULO&lt;/li&gt;&lt;/ul&gt;" style="ellipse;whiteSpace=wrap;html=1;align=left;labelBackgroundColor=none;fillColor=#F5AB50;strokeColor=#000000;fontColor=#1A1A1A;rounded=1;strokeWidth=2;" vertex="1" parent="1">
          <mxGeometry x="580" y="110" width="190" height="160" as="geometry" />
        </mxCell>
        <mxCell id="Z4MrIaU6HC4P4dryGhvO-14" value="&lt;font color=&quot;#000000&quot;&gt;&lt;b&gt;DPTO_VENTAS&lt;br&gt;&lt;br&gt;&lt;/b&gt;&lt;/font&gt;" style="whiteSpace=wrap;html=1;align=center;labelBackgroundColor=none;fillColor=#F78A0C;strokeColor=#000000;fontColor=#1A1A1A;rounded=1;strokeWidth=2;" vertex="1" parent="1">
          <mxGeometry x="-290" y="-320" width="130" height="60" as="geometry" />
        </mxCell>
        <mxCell id="Z4MrIaU6HC4P4dryGhvO-15" value="&lt;ul&gt;&lt;li&gt;ID_VENTAS&lt;/li&gt;&lt;li&gt;ID_FACTURA&lt;/li&gt;&lt;li&gt;ID_VENDEDOR&lt;/li&gt;&lt;/ul&gt;" style="ellipse;whiteSpace=wrap;html=1;align=left;labelBackgroundColor=none;fillColor=#F5AB50;strokeColor=#000000;fontColor=#1A1A1A;rounded=1;strokeWidth=2;" vertex="1" parent="1">
          <mxGeometry x="-160" y="-500" width="150" height="140" as="geometry" />
        </mxCell>
        <mxCell id="Z4MrIaU6HC4P4dryGhvO-16" value="&lt;b&gt;&lt;font color=&quot;#000000&quot;&gt;TIENE&lt;/font&gt;&lt;/b&gt;" style="shape=rhombus;perimeter=rhombusPerimeter;whiteSpace=wrap;html=1;align=center;labelBackgroundColor=none;fillColor=#F78A0C;strokeColor=#000000;fontColor=#1A1A1A;rounded=1;strokeWidth=2;" vertex="1" parent="1">
          <mxGeometry x="-285" y="-180" width="120" height="60" as="geometry" />
        </mxCell>
        <mxCell id="Z4MrIaU6HC4P4dryGhvO-22" value="" style="shape=link;html=1;rounded=1;exitX=0.5;exitY=0;exitDx=0;exitDy=0;labelBackgroundColor=none;fontColor=default;strokeColor=#182E3E;entryX=0.5;entryY=1;entryDx=0;entryDy=0;" edge="1" parent="1" source="Z4MrIaU6HC4P4dryGhvO-16" target="Z4MrIaU6HC4P4dryGhvO-14">
          <mxGeometry relative="1" as="geometry">
            <mxPoint x="-540" y="30" as="sourcePoint" />
            <mxPoint x="-450" y="-240" as="targetPoint" />
            <Array as="points" />
          </mxGeometry>
        </mxCell>
        <mxCell id="Z4MrIaU6HC4P4dryGhvO-23" value="1" style="resizable=0;html=1;whiteSpace=wrap;align=right;verticalAlign=bottom;labelBackgroundColor=none;fillColor=#F5AB50;strokeColor=#909090;fontColor=#1A1A1A;rounded=1;fontStyle=1;fontSize=19;" connectable="0" vertex="1" parent="Z4MrIaU6HC4P4dryGhvO-22">
          <mxGeometry x="1" relative="1" as="geometry">
            <mxPoint x="-15" y="36" as="offset" />
          </mxGeometry>
        </mxCell>
        <mxCell id="Z4MrIaU6HC4P4dryGhvO-24" style="edgeStyle=orthogonalEdgeStyle;rounded=1;orthogonalLoop=1;jettySize=auto;html=1;exitX=0.5;exitY=0;exitDx=0;exitDy=0;entryX=0;entryY=0.5;entryDx=0;entryDy=0;startArrow=classic;startFill=1;labelBackgroundColor=none;fontColor=default;strokeColor=#182E3E;" edge="1" parent="1" source="Z4MrIaU6HC4P4dryGhvO-14" target="Z4MrIaU6HC4P4dryGhvO-15">
          <mxGeometry relative="1" as="geometry">
            <mxPoint x="-459" y="-310" as="sourcePoint" />
            <mxPoint x="-368" y="-190" as="targetPoint" />
          </mxGeometry>
        </mxCell>
        <mxCell id="Z4MrIaU6HC4P4dryGhvO-25" value="" style="shape=link;html=1;rounded=1;exitX=0.5;exitY=1;exitDx=0;exitDy=0;labelBackgroundColor=none;fontColor=default;strokeColor=#182E3E;entryX=0.5;entryY=0;entryDx=0;entryDy=0;" edge="1" parent="1" source="Z4MrIaU6HC4P4dryGhvO-16" target="NHeLsw_yhPCQy0wxF3gW-2">
          <mxGeometry relative="1" as="geometry">
            <mxPoint x="-650" y="160" as="sourcePoint" />
            <mxPoint x="-590" y="-120" as="targetPoint" />
            <Array as="points" />
          </mxGeometry>
        </mxCell>
        <mxCell id="Z4MrIaU6HC4P4dryGhvO-26" value="N" style="resizable=0;html=1;whiteSpace=wrap;align=right;verticalAlign=bottom;labelBackgroundColor=none;fillColor=#F5AB50;strokeColor=#909090;fontColor=#1A1A1A;rounded=1;fontStyle=1;fontSize=19;" connectable="0" vertex="1" parent="Z4MrIaU6HC4P4dryGhvO-25">
          <mxGeometry x="1" relative="1" as="geometry">
            <mxPoint x="-15" y="-10" as="offset" />
          </mxGeometry>
        </mxCell>
        <mxCell id="Z4MrIaU6HC4P4dryGhvO-27" value="" style="shape=link;html=1;rounded=1;labelBackgroundColor=none;fontColor=default;strokeColor=#182E3E;exitX=0.5;exitY=0;exitDx=0;exitDy=0;entryX=0.5;entryY=1;entryDx=0;entryDy=0;" edge="1" parent="1" source="Z4MrIaU6HC4P4dryGhvO-29" target="Z4MrIaU6HC4P4dryGhvO-11">
          <mxGeometry relative="1" as="geometry">
            <mxPoint x="30" y="-290" as="sourcePoint" />
            <mxPoint x="-110" y="-310" as="targetPoint" />
            <Array as="points" />
          </mxGeometry>
        </mxCell>
        <mxCell id="Z4MrIaU6HC4P4dryGhvO-28" value="1" style="resizable=0;html=1;whiteSpace=wrap;align=right;verticalAlign=bottom;labelBackgroundColor=none;fillColor=#F5AB50;strokeColor=#909090;fontColor=#1A1A1A;rounded=1;fontStyle=1;fontSize=19;" connectable="0" vertex="1" parent="Z4MrIaU6HC4P4dryGhvO-27">
          <mxGeometry x="1" relative="1" as="geometry">
            <mxPoint x="-17" y="32" as="offset" />
          </mxGeometry>
        </mxCell>
        <mxCell id="Z4MrIaU6HC4P4dryGhvO-29" value="&lt;b&gt;&lt;font color=&quot;#000000&quot;&gt;TIENE&lt;/font&gt;&lt;/b&gt;" style="shape=rhombus;perimeter=rhombusPerimeter;whiteSpace=wrap;html=1;align=center;labelBackgroundColor=none;fillColor=#F78A0C;strokeColor=#000000;fontColor=#1A1A1A;rounded=1;strokeWidth=2;" vertex="1" parent="1">
          <mxGeometry x="350" y="340" width="120" height="60" as="geometry" />
        </mxCell>
        <mxCell id="Z4MrIaU6HC4P4dryGhvO-30" value="" style="shape=link;html=1;rounded=1;exitX=0.5;exitY=1;exitDx=0;exitDy=0;labelBackgroundColor=none;fontColor=default;strokeColor=#182E3E;entryX=0.451;entryY=0;entryDx=0;entryDy=0;entryPerimeter=0;" edge="1" parent="1" source="Z4MrIaU6HC4P4dryGhvO-29" target="j6GS85r5pPpASv1nKcc8-1">
          <mxGeometry relative="1" as="geometry">
            <mxPoint x="-400" y="-200" as="sourcePoint" />
            <mxPoint x="-395" y="-110" as="targetPoint" />
            <Array as="points" />
          </mxGeometry>
        </mxCell>
        <mxCell id="Z4MrIaU6HC4P4dryGhvO-31" value="N" style="resizable=0;html=1;whiteSpace=wrap;align=right;verticalAlign=bottom;labelBackgroundColor=none;fillColor=#F5AB50;strokeColor=#909090;fontColor=#1A1A1A;rounded=1;fontStyle=1;fontSize=19;" connectable="0" vertex="1" parent="Z4MrIaU6HC4P4dryGhvO-30">
          <mxGeometry x="1" relative="1" as="geometry">
            <mxPoint x="-15" y="-10" as="offset" />
          </mxGeometry>
        </mxCell>
        <mxCell id="Z4MrIaU6HC4P4dryGhvO-32" style="edgeStyle=orthogonalEdgeStyle;rounded=1;orthogonalLoop=1;jettySize=auto;html=1;exitX=1;exitY=0.5;exitDx=0;exitDy=0;entryX=0;entryY=0.5;entryDx=0;entryDy=0;startArrow=classic;startFill=1;labelBackgroundColor=none;fontColor=default;strokeColor=#182E3E;" edge="1" parent="1" source="Z4MrIaU6HC4P4dryGhvO-11" target="Z4MrIaU6HC4P4dryGhvO-13">
          <mxGeometry relative="1" as="geometry">
            <mxPoint x="210" y="-470" as="sourcePoint" />
            <mxPoint x="399.99999999999955" y="-260" as="targetPoint" />
          </mxGeometry>
        </mxCell>
        <mxCell id="Z4MrIaU6HC4P4dryGhvO-33" style="edgeStyle=orthogonalEdgeStyle;rounded=1;orthogonalLoop=1;jettySize=auto;html=1;exitX=0.5;exitY=1;exitDx=0;exitDy=0;startArrow=classic;startFill=1;labelBackgroundColor=none;fontColor=default;strokeColor=#182E3E;entryX=0.5;entryY=0;entryDx=0;entryDy=0;" edge="1" parent="1" source="Z4MrIaU6HC4P4dryGhvO-2" target="Z4MrIaU6HC4P4dryGhvO-4">
          <mxGeometry relative="1" as="geometry">
            <mxPoint x="-180" y="760" as="sourcePoint" />
            <mxPoint x="-220" y="850" as="targetPoint" />
          </mxGeometry>
        </mxCell>
        <mxCell id="Z4MrIaU6HC4P4dryGhvO-34" value="&lt;b&gt;&lt;font color=&quot;#000000&quot;&gt;TIENE&lt;/font&gt;&lt;/b&gt;" style="shape=rhombus;perimeter=rhombusPerimeter;whiteSpace=wrap;html=1;align=center;labelBackgroundColor=none;fillColor=#F78A0C;strokeColor=#000000;fontColor=#1A1A1A;rounded=1;strokeWidth=2;" vertex="1" parent="1">
          <mxGeometry x="350" y="-160" width="120" height="60" as="geometry" />
        </mxCell>
        <mxCell id="Z4MrIaU6HC4P4dryGhvO-35" value="&lt;b&gt;&lt;font color=&quot;#000000&quot;&gt;VEHICULOS&lt;/font&gt;&lt;/b&gt;" style="whiteSpace=wrap;html=1;align=center;labelBackgroundColor=none;fillColor=#F78A0C;strokeColor=#000000;fontColor=#1A1A1A;rounded=1;strokeWidth=2;" vertex="1" parent="1">
          <mxGeometry x="335" y="-320" width="150" height="60" as="geometry" />
        </mxCell>
        <mxCell id="Z4MrIaU6HC4P4dryGhvO-36" value="&lt;ul&gt;&lt;li&gt;ID_VEHICULO&lt;/li&gt;&lt;li&gt;NOMBRE_VEHICULO&lt;/li&gt;&lt;li&gt;MARCA&lt;/li&gt;&lt;li&gt;ANIO&lt;/li&gt;&lt;li&gt;PATENTE&lt;/li&gt;&lt;li&gt;CAPACIDAD_CARGA&lt;/li&gt;&lt;li&gt;NOMBRE_CHOFER&lt;/li&gt;&lt;li&gt;APELLIDO_CHOFER&lt;/li&gt;&lt;li&gt;RUT_CHOFER&lt;/li&gt;&lt;/ul&gt;" style="ellipse;whiteSpace=wrap;html=1;align=left;labelBackgroundColor=none;fillColor=#F5AB50;strokeColor=#000000;fontColor=#1A1A1A;rounded=1;strokeWidth=2;" vertex="1" parent="1">
          <mxGeometry x="580" y="-240" width="190" height="180" as="geometry" />
        </mxCell>
        <mxCell id="Z4MrIaU6HC4P4dryGhvO-37" value="" style="shape=link;html=1;rounded=1;labelBackgroundColor=none;fontColor=default;strokeColor=#182E3E;entryX=0;entryY=0.5;entryDx=0;entryDy=0;exitX=1;exitY=0.5;exitDx=0;exitDy=0;" edge="1" parent="1" source="Z4MrIaU6HC4P4dryGhvO-3" target="j6GS85r5pPpASv1nKcc8-1">
          <mxGeometry relative="1" as="geometry">
            <mxPoint x="40" y="300" as="sourcePoint" />
            <mxPoint x="-130" y="350" as="targetPoint" />
            <Array as="points" />
          </mxGeometry>
        </mxCell>
        <mxCell id="Z4MrIaU6HC4P4dryGhvO-38" value="N" style="resizable=0;html=1;whiteSpace=wrap;align=right;verticalAlign=bottom;labelBackgroundColor=none;fillColor=#F5AB50;strokeColor=#909090;fontColor=#1A1A1A;rounded=1;fontStyle=1;fontSize=19;" connectable="0" vertex="1" parent="Z4MrIaU6HC4P4dryGhvO-37">
          <mxGeometry x="1" relative="1" as="geometry">
            <mxPoint x="-17" y="35" as="offset" />
          </mxGeometry>
        </mxCell>
        <mxCell id="Z4MrIaU6HC4P4dryGhvO-39" value="" style="shape=link;html=1;rounded=1;exitX=0.5;exitY=1;exitDx=0;exitDy=0;entryX=0.5;entryY=0;entryDx=0;entryDy=0;labelBackgroundColor=none;fontColor=default;strokeColor=#182E3E;" edge="1" parent="1" source="Z4MrIaU6HC4P4dryGhvO-34" target="Z4MrIaU6HC4P4dryGhvO-11">
          <mxGeometry relative="1" as="geometry">
            <mxPoint x="-130" y="-380" as="sourcePoint" />
            <mxPoint x="80" y="-360" as="targetPoint" />
          </mxGeometry>
        </mxCell>
        <mxCell id="Z4MrIaU6HC4P4dryGhvO-40" value="1" style="resizable=0;html=1;whiteSpace=wrap;align=right;verticalAlign=bottom;labelBackgroundColor=none;fillColor=#F5AB50;strokeColor=#909090;fontColor=#1A1A1A;rounded=1;fontStyle=1;fontSize=19;" connectable="0" vertex="1" parent="Z4MrIaU6HC4P4dryGhvO-39">
          <mxGeometry x="1" relative="1" as="geometry">
            <mxPoint x="-20" y="-10" as="offset" />
          </mxGeometry>
        </mxCell>
        <mxCell id="Z4MrIaU6HC4P4dryGhvO-41" value="" style="shape=link;html=1;rounded=1;exitX=0.5;exitY=0;exitDx=0;exitDy=0;entryX=0.5;entryY=1;entryDx=0;entryDy=0;labelBackgroundColor=none;fontColor=default;strokeColor=#182E3E;" edge="1" parent="1" source="Z4MrIaU6HC4P4dryGhvO-34" target="Z4MrIaU6HC4P4dryGhvO-35">
          <mxGeometry relative="1" as="geometry">
            <mxPoint x="80" y="-520" as="sourcePoint" />
            <mxPoint x="145" y="-390" as="targetPoint" />
          </mxGeometry>
        </mxCell>
        <mxCell id="Z4MrIaU6HC4P4dryGhvO-42" value="N" style="resizable=0;html=1;whiteSpace=wrap;align=right;verticalAlign=bottom;labelBackgroundColor=none;fillColor=#F5AB50;strokeColor=#909090;fontColor=#1A1A1A;rounded=1;fontStyle=1;fontSize=19;" connectable="0" vertex="1" parent="Z4MrIaU6HC4P4dryGhvO-41">
          <mxGeometry x="1" relative="1" as="geometry">
            <mxPoint x="-17" y="31" as="offset" />
          </mxGeometry>
        </mxCell>
        <mxCell id="Z4MrIaU6HC4P4dryGhvO-43" style="edgeStyle=orthogonalEdgeStyle;rounded=1;orthogonalLoop=1;jettySize=auto;html=1;exitX=1;exitY=0.5;exitDx=0;exitDy=0;entryX=0;entryY=0.5;entryDx=0;entryDy=0;startArrow=classic;startFill=1;labelBackgroundColor=none;fontColor=default;strokeColor=#182E3E;" edge="1" parent="1" source="Z4MrIaU6HC4P4dryGhvO-35" target="Z4MrIaU6HC4P4dryGhvO-36">
          <mxGeometry relative="1" as="geometry">
            <mxPoint x="280" y="-480" as="sourcePoint" />
            <mxPoint x="430" y="-240" as="targetPoint" />
          </mxGeometry>
        </mxCell>
        <mxCell id="Z4MrIaU6HC4P4dryGhvO-44" value="" style="edgeStyle=orthogonalEdgeStyle;rounded=1;orthogonalLoop=1;jettySize=auto;html=1;startArrow=classic;startFill=1;entryX=0.5;entryY=0;entryDx=0;entryDy=0;exitX=1;exitY=0.5;exitDx=0;exitDy=0;labelBackgroundColor=none;fontColor=default;strokeColor=#182E3E;" edge="1" parent="1" source="j6GS85r5pPpASv1nKcc8-1" target="j6GS85r5pPpASv1nKcc8-6">
          <mxGeometry relative="1" as="geometry">
            <mxPoint x="240" y="360" as="sourcePoint" />
            <mxPoint x="310" y="497" as="targetPoint" />
          </mxGeometry>
        </mxCell>
        <mxCell id="Z4MrIaU6HC4P4dryGhvO-50" value="" style="shape=link;html=1;rounded=1;exitX=0;exitY=0.5;exitDx=0;exitDy=0;entryX=1;entryY=0.5;entryDx=0;entryDy=0;labelBackgroundColor=none;fontColor=default;strokeColor=#182E3E;" edge="1" parent="1" source="NHeLsw_yhPCQy0wxF3gW-18" target="Z4MrIaU6HC4P4dryGhvO-14">
          <mxGeometry relative="1" as="geometry">
            <mxPoint x="130" y="-280" as="sourcePoint" />
            <mxPoint x="130" y="-170" as="targetPoint" />
          </mxGeometry>
        </mxCell>
        <mxCell id="Z4MrIaU6HC4P4dryGhvO-51" value="1" style="resizable=0;html=1;whiteSpace=wrap;align=right;verticalAlign=bottom;labelBackgroundColor=none;fillColor=#F5AB50;strokeColor=#909090;fontColor=#1A1A1A;rounded=1;fontStyle=1;fontSize=19;" connectable="0" vertex="1" parent="Z4MrIaU6HC4P4dryGhvO-50">
          <mxGeometry x="1" relative="1" as="geometry">
            <mxPoint x="22" y="-10" as="offset" />
          </mxGeometry>
        </mxCell>
      </root>
    </mxGraphModel>
  </diagram>
</mxfile>
